<svg class="svg-icon" xmlns="http://www.w3.org/2000/svg" width="30" height="30" viewBox="0 0 30 30" style="margin-right: 10rem; margin-bottom: 10px">
                                <path id="circled-horizontal-more-svgrepo-com" d="M3.727,16A12.273,12.273,0,1,1,16,28.273,12.273,12.273,0,0,1,3.727,16ZM16,1A15,15,0,1,0,31,16,15,15,0,0,0,16,1ZM9.182,18.045A2.045,2.045,0,1,0,7.136,16,2.045,2.045,0,0,0,9.182,18.045ZM18.045,16A2.045,2.045,0,1,1,16,13.955,2.046,2.046,0,0,1,18.045,16Zm4.773,2.045A2.045,2.045,0,1,0,20.773,16,2.046,2.046,0,0,0,22.818,18.045Z" transform="translate(-1 -1)" fill="#c6cad0" fill-rule="evenodd"></path>
                              </svg>